# xmcd
#
# Track frame offsets:
#	150
#	18795
#	37437
#	52012
#	62052
#	82472
#	94848
#	113676
#	126261
#	141148
#	152794
#	171553
#	185841
#	200978
#	215797
#	228960
#	246179
#	261874
#
# Disc length: 3675 seconds
#
# Revision: 1
# Processed by: cddbd v1.5.2PL0 Copyright (c) Steve Scherf et al.
# Submitted via: audiograbber 1.83.01
#
DISCID=200e5912
DTITLE=Various Artist - Essential Country
DYEAR=2002
DGENRE=Country
TTITLE0=Suzy Bogguss - Hey Cinderella
TTITLE1=Vince Gill - Pocket Full Of Gold
TTITLE2=Deana Carter - Did I Shave My Legs For This?
TTITLE3=Nanci Griffith - Ford Econoline
TTITLE4=Steve Earle - Copperhead Road
TTITLE5=Tanya Tucker - Strong Enough To Bend
TTITLE6=The Flying Burrito Brothers - Sin City
TTITLE7=Freddie Fender - Squeeze Box
TTITLE8=Crystal Gayle - The Blue Side
TTITLE9=Bobbie Gentry and Glen Campbell - All I Have To Do Is Dream
TTITLE10=Juice Newton - Angel Of The Morning
TTITLE11=Suzy Bogguss - Drive South
TTITLE12=Asleep At The Wheel - Lay Down Sally
TTITLE13=Olivia Newton-John - Banks Of The Ohio
TTITLE14=Hank Williams - Jambalaya (On The Bayou)
TTITLE15=Lacy J Dalton - The Loveless Cafe
TTITLE16=Jimmy Buffett - If The Phone Doesn't Ring, It's Me
TTITLE17=Reba Mcentire - Cathy's Clown
EXTD=
EXTT0=
EXTT1=
EXTT2=
EXTT3=
EXTT4=
EXTT5=
EXTT6=
EXTT7=
EXTT8=
EXTT9=
EXTT10=
EXTT11=
EXTT12=
EXTT13=
EXTT14=
EXTT15=
EXTT16=
EXTT17=
PLAYORDER=
